<svg width="216" height="58" viewBox="0 0 216 58" fill="none" xmlns="http://www.w3.org/2000/svg">
<path d="M51.7791 57.8995C48.9997 57.8594 47.339 57.755 46.1311 57.5445C45.8417 57.4941 45.3681 57.4184 45.0787 57.3763C44.2499 57.2558 41.6389 56.6235 41.2734 56.4548C41.2064 56.4239 41.1144 56.3986 41.0689 56.3986C40.9877 56.3986 40.3652 56.1825 39.3255 55.7932C37.3693 55.0608 34.8993 53.6186 33.3066 52.2787C32.2661 51.4034 30.5669 49.5184 30.1617 48.7899C30.1072 48.6919 29.99 48.5119 29.9013 48.39C29.7047 48.1196 28.9902 46.776 28.8511 46.4149C28.7956 46.2709 28.671 45.9468 28.5741 45.6948C28.0045 44.213 27.6107 42.4375 27.598 41.2943C27.5955 41.0673 27.558 40.8647 27.5133 40.8361C27.4692 40.8078 24.6308 40.7926 21.2058 40.8021L14.9784 40.8196L14.9949 41.1622C15.0038 41.3507 15.0041 45.1669 14.9954 49.6426L14.9795 57.7803L14.6111 57.7605L14.2428 57.7407L14.2299 49.2954C14.2176 41.182 14.2121 40.8502 14.0896 40.8502C13.9673 40.8502 13.9607 41.1896 13.9271 49.2954L13.892 57.7407H13.5061H13.1202L13.1033 49.3936C13.0941 44.8028 13.0861 40.9951 13.0858 40.932C13.0854 40.8614 13.0314 40.8175 12.9451 40.8175C12.8059 40.8175 12.8049 40.872 12.7872 49.2791L12.7694 57.7407H12.3634H11.9574L11.9612 49.2744L11.965 40.8081L11.8059 40.8291L11.6468 40.8501L11.6297 49.2626C11.6203 53.8895 11.6124 57.6972 11.6122 57.7242C11.6113 57.8135 10.77 57.781 10.7666 57.6915C10.7649 57.6464 10.757 53.8387 10.7491 49.2299C10.7353 41.2185 10.7291 40.8501 10.6087 40.8501C10.4883 40.8501 10.483 41.2125 10.4858 49.2299C10.4875 53.8387 10.4621 57.6483 10.4295 57.6955C10.3903 57.7522 10.2537 57.7744 10.0262 57.7609L9.68223 57.7406L9.66547 49.3321C9.65435 43.7726 9.62467 40.9012 9.57777 40.8574C9.52995 40.8128 9.48353 40.813 9.43536 40.8579C9.38777 40.9023 9.35847 43.7325 9.34766 49.3326L9.33141 57.7406H4.66574H0V40.9156V24.0905H29.573C53.7413 24.0905 59.3384 24.1066 60.1985 24.1784C61.3012 24.2704 63.9473 24.5995 64.5485 24.7194C66.8339 25.175 68.5582 25.6513 69.9159 26.2019C70.8235 26.57 72.3451 27.2725 72.6522 27.4653C72.7486 27.5258 73.017 27.688 73.2485 27.8256C74.599 28.6281 76.069 29.7998 76.868 30.7105C77.6898 31.6474 78.5874 33.1545 79.0618 34.3943L79.2957 35.0055L79.3383 32.0685C79.3617 30.4532 79.3703 28.0901 79.3575 26.8173C79.3443 25.5445 79.3495 24.4472 79.3694 24.3787C79.4032 24.2575 79.5767 24.2542 85.9724 24.2542C89.5879 24.2542 93.0457 24.2838 93.6644 24.3201C94.2826 24.3564 95.3566 24.4161 96.0512 24.4529C97.1398 24.5105 98.2046 24.598 99.6295 24.747C99.8224 24.7672 100.233 24.8254 100.542 24.8765C100.85 24.9275 101.308 25.002 101.559 25.0419C104.652 25.5342 107.421 26.671 108.761 27.9987C109.404 28.6358 109.698 29.3719 109.698 30.3445C109.698 32.4384 107.96 33.8151 103.839 34.9873C103.723 35.0202 103.329 35.1109 102.962 35.1889C102.596 35.2668 102.223 35.3572 102.134 35.3898C102.046 35.4224 101.868 35.4491 101.74 35.4491C101.611 35.4491 101.372 35.4933 101.208 35.5473C101.044 35.6014 100.792 35.6455 100.648 35.6455C100.505 35.6455 100.296 35.6738 100.184 35.7084C100.072 35.743 99.6803 35.8041 99.3137 35.8442C98.4624 35.9373 97.109 36.0917 97.0861 36.0985C96.9606 36.1357 97.9131 37.0579 102.91 41.7367C106.122 44.7448 109.79 48.2141 111.061 49.4462C112.332 50.6783 113.391 51.6572 113.415 51.6215C113.461 51.5518 114.319 52.3447 114.635 52.7487C114.74 52.8837 114.852 52.9942 114.883 52.9942C114.97 52.9942 115.03 46.2779 115.026 36.9221C115.021 24.9108 115.023 25.1114 114.864 24.8925L114.733 24.7125H121.392H128.05L128.372 25.0234C128.549 25.1945 129.289 25.9825 130.016 26.7747C130.743 27.5668 131.86 28.7788 132.498 29.4679C133.136 30.157 133.868 30.9524 134.126 31.2355C134.383 31.5186 135.041 32.2362 135.589 32.8304C138.199 35.6636 139.379 36.9505 140.36 38.035C140.946 38.6831 141.462 39.2492 141.506 39.2929C141.586 39.3728 141.589 38.2549 141.534 28.4114C141.517 25.2774 141.508 25.0615 141.385 24.8925L141.254 24.7125H147.913H154.571L154.893 25.0234C155.07 25.1945 155.81 25.9825 156.537 26.7747C157.264 27.5668 158.381 28.7788 159.019 29.4679C159.657 30.157 160.389 30.9524 160.647 31.2355C160.904 31.5186 161.562 32.2362 162.11 32.8304C164.765 35.712 165.919 36.9706 167.09 38.2641C167.791 39.0383 168.717 40.0517 169.147 40.5161C169.578 40.9806 170.189 41.65 170.506 42.0036C171.452 43.0589 174.349 46.2119 175.093 46.9958C175.123 47.0273 175.142 45.1566 175.135 42.8386C175.129 40.5207 175.128 38.5358 175.133 38.4278C175.138 38.3198 175.129 35.0865 175.112 31.2428L175.082 24.2542H177.314H179.547L185.263 29.5022C188.407 32.3885 193.335 36.9328 196.214 39.6004C203.88 46.7044 207.899 50.3797 208.963 51.2607C209.129 51.3986 209.312 51.5946 209.368 51.6963C209.424 51.7981 209.51 51.8813 209.559 51.8813C209.667 51.8813 210.413 52.5901 210.472 52.7487C210.496 52.8117 210.557 52.8633 210.607 52.8633C210.658 52.8633 211.193 53.3273 211.795 53.8944C212.397 54.4615 213.09 55.1066 213.336 55.3279C213.581 55.5493 213.829 55.777 213.887 55.834C213.945 55.891 214.161 56.0772 214.367 56.2478C214.573 56.4184 214.787 56.64 214.842 56.7401C214.898 56.8402 214.983 56.9222 215.031 56.9222C215.079 56.9222 215.317 57.1088 215.559 57.337L216 57.7517L210.196 57.7952C207.004 57.8191 181.894 57.8391 154.396 57.8396L104.4 57.8405L102.12 55.6791C100.866 54.4903 98.4505 52.18 96.7526 50.545C95.0547 48.91 93.6287 47.5696 93.5838 47.5663C93.4571 47.5571 93.4422 48.08 93.4314 52.9615C93.4261 55.4459 93.4222 57.5464 93.4209 57.6291C93.4201 57.772 93.3982 57.7786 92.9816 57.7601L92.5431 57.7406L92.5079 52.0458C92.475 46.6962 92.4653 46.3498 92.3504 46.3291C92.2348 46.3084 92.227 46.6266 92.2101 52.0238L92.1922 57.7406H91.7718H91.3508L91.3329 51.5569C91.321 47.3983 91.2911 45.351 91.2423 45.3053C91.1922 45.2585 91.1493 45.2677 91.1044 45.3351C91.0655 45.3935 91.0385 47.8997 91.0377 51.5539C91.0369 54.9206 91.0351 57.6972 91.0351 57.7242C91.0351 57.7512 90.8136 57.7733 90.5435 57.7733H90.0524V50.9118C90.0524 45.0918 90.0373 44.0309 89.9528 43.9232C89.8981 43.8534 89.8336 43.8146 89.8096 43.8369C89.7857 43.8593 89.7594 46.9968 89.7513 50.8091L89.7365 57.7405L89.298 57.76C88.9744 57.7745 88.8597 57.7569 88.8602 57.6946C88.8628 57.2641 88.8021 42.7446 88.7966 42.7322C88.7926 42.7229 88.7419 42.7158 88.684 42.7158C88.591 42.7158 88.5787 43.592 88.5787 50.2085C88.5787 56.6321 88.5644 57.7087 88.4784 57.7536C88.4233 57.7824 88.2181 57.7958 88.0224 57.7833L87.6665 57.7606L87.6519 50.3855C87.6342 41.4444 87.6382 41.8663 87.5699 41.6811C87.5394 41.5981 87.4775 41.5417 87.4325 41.5557C87.371 41.5748 87.3489 43.5743 87.3433 49.6608L87.3354 57.7405H86.8577H86.3799L86.3569 49.1643C86.3437 44.4474 86.3161 40.4905 86.2942 40.3712C86.2709 40.2437 86.22 40.165 86.1708 40.1803C86.1066 40.2003 86.0872 42.2429 86.0872 48.9734V57.7405H85.6311H85.1751L85.128 55.842C85.1022 54.7978 85.0729 50.6227 85.0633 46.564C85.0527 42.5053 85.0233 39.1511 84.9964 39.1101C84.961 39.0567 84.9297 39.0607 84.8856 39.1246C84.8042 39.2425 84.7733 50.3399 84.8432 54.4017C84.8736 56.1661 84.8862 57.6464 84.8714 57.6915C84.8502 57.7552 84.2233 57.7733 82.0453 57.7733C79.8534 57.7733 79.2462 57.7556 79.2457 57.6915C79.2244 55.3361 79.2298 53.7566 79.2716 50.1791L79.3225 45.8256L79.0121 46.5784C77.9699 49.1061 76.6915 50.8283 74.6278 52.4847C71.692 54.841 68.1215 56.4196 63.881 57.236C61.6797 57.6599 60.094 57.8264 57.812 57.8734C56.8859 57.8925 55.7809 57.9153 55.3564 57.924C54.9319 57.9323 53.3227 57.9221 51.7791 57.8995ZM54.843 56.8215C57.0393 56.323 58.7777 55.5735 60.7247 54.2856C61.9027 53.5065 63.5947 51.9236 64.5544 50.703C65.1282 49.9731 65.2 49.8724 65.5821 49.2627C66.8654 47.2148 67.4521 45.667 67.9648 42.9778C68.1733 41.8841 68.19 39.5033 67.9975 38.297C67.5783 35.6689 67.1328 34.2492 66.2204 32.6341C64.6855 29.9169 62.2352 27.6857 59.3215 26.3519C58.4237 25.9409 56.9377 25.4611 56.059 25.2985C54.9615 25.0954 54.207 25.0092 53.884 25.0498C53.691 25.074 53.3652 25.0965 53.16 25.0996C52.8052 25.1047 52.3622 25.2251 50.7267 25.7593C49.4111 26.189 47.7048 27.0969 46.4819 28.018C45.9063 28.4515 44.4967 29.7831 44.0211 30.3427C43.1493 31.3684 42.5383 32.3451 41.7482 33.9761C41.2193 35.0679 40.7925 36.6014 40.5547 38.2642C40.4352 39.1003 40.4128 41.2175 40.5156 41.9631C40.5504 42.2151 40.5975 42.5981 40.6203 42.8141C40.7032 43.5969 40.7404 43.8071 40.9104 44.4508C41.2419 45.7055 41.7936 47.1296 42.3434 48.1497C43.3287 49.9777 44.3453 51.2723 46.0213 52.8335C47.6359 54.3375 49.0972 55.2533 51.4324 56.2248C51.7434 56.3542 52.1696 56.4938 52.3796 56.5351C52.5896 56.5765 52.793 56.633 52.8316 56.6607C52.8702 56.6884 53.0438 56.7324 53.2174 56.7586C53.3911 56.7847 53.5805 56.8314 53.6384 56.8622C53.8039 56.9505 54.3575 56.9317 54.843 56.8215ZM121.067 54.0581C121.073 50.9054 121.122 43.8048 121.163 40.1955C121.255 32.09 121.244 31.5866 120.973 31.5866C120.907 31.5866 120.886 32.1669 120.884 34.1234C120.881 36.6789 120.812 45.4599 120.74 52.5197L120.702 56.3331H120.883H121.064L121.067 54.0581ZM122.211 56.1351C122.234 56.0263 122.258 54.2955 122.265 52.289C122.271 50.2824 122.282 47.9337 122.291 47.0695C122.406 35.0974 122.408 32.986 122.3 32.9028C122.241 32.8568 122.161 32.837 122.124 32.8588C122.08 32.8839 122.053 34.5045 122.051 37.2998C122.048 39.7206 122.032 42.2315 122.014 42.8796C121.996 43.5278 121.96 46.8199 121.934 50.1956C121.887 56.3083 121.888 56.3331 122.028 56.3331C122.128 56.3331 122.181 56.2764 122.211 56.1351ZM123.385 55.3675C123.389 54.8364 123.403 53.6801 123.417 52.7979C123.431 51.9157 123.459 49.3969 123.479 47.2005C123.499 45.0041 123.537 41.2165 123.562 38.7838C123.609 34.2853 123.6 34.0743 123.358 34.0743C123.291 34.0743 123.267 35.0078 123.249 38.2794C123.237 40.5923 123.217 42.4998 123.206 42.5184C123.194 42.5371 123.16 45.41 123.131 48.9026C123.101 52.3953 123.076 55.3413 123.074 55.4493C123.071 55.5573 123.076 55.8004 123.084 55.9894C123.096 56.2851 123.118 56.3331 123.239 56.3331C123.372 56.3331 123.379 56.2876 123.385 55.3675ZM124.577 54.2218C124.581 53.0606 124.595 51.374 124.611 50.4738C124.643 48.6181 124.684 45.4695 124.751 39.6718C124.799 35.5912 124.786 35.3182 124.538 35.3182C124.444 35.3182 124.431 35.6891 124.425 38.4443C124.423 40.1636 124.409 42.1595 124.397 42.8796C124.334 46.5825 124.288 49.7661 124.251 52.8797L124.211 56.3331H124.391H124.572L124.577 54.2218ZM125.723 56.1204C125.742 56.0033 125.776 53.6833 125.797 50.9648C125.836 46.0344 125.876 42.7669 125.942 39.1203C125.975 37.2831 125.97 37.1878 125.841 37.0581C125.766 36.9834 125.693 36.8338 125.677 36.7257C125.662 36.6177 125.637 37.2806 125.623 38.1988C125.609 39.1169 125.592 40.1333 125.585 40.4574C125.579 40.7814 125.554 42.77 125.531 44.8764C125.438 53.3391 125.396 56.2372 125.366 56.284C125.349 56.311 125.414 56.3331 125.511 56.3331C125.656 56.3331 125.694 56.2953 125.723 56.1204ZM126.914 54.0254C126.97 51.2658 127.091 43.0597 127.115 40.377L127.133 38.4636L126.949 38.2925L126.766 38.1213L126.774 39.5185C126.778 40.2869 126.757 42.6538 126.728 44.7782C126.698 46.9026 126.658 49.7897 126.638 51.194C126.618 52.5982 126.588 54.329 126.57 55.0402L126.537 56.3331H126.702H126.867L126.914 54.0254ZM143.576 56.2195C143.523 56.157 142.88 55.4574 142.146 54.6647C141.413 53.872 140.734 53.1314 140.638 53.0189C140.542 52.9064 139.2 51.45 137.657 49.7824C136.113 48.1149 134.55 46.4243 134.184 46.0256C133.817 45.6268 133.091 44.846 132.57 44.2903C132.049 43.7346 131.465 43.0982 131.272 42.8761C130.892 42.4385 128.072 39.4426 128.041 39.4426C128.03 39.4426 128.018 39.9184 128.013 40.4998C128.009 41.0812 127.993 41.5747 127.979 41.5964C127.965 41.618 127.935 43.1824 127.912 45.0728C127.857 49.5962 127.807 52.7238 127.758 54.7128L127.717 56.3331H135.695C143.257 56.3331 143.668 56.3269 143.576 56.2195ZM170.106 56.2947C170.106 56.2735 169.546 55.6509 168.861 54.9111C168.176 54.1713 167.521 53.4595 167.406 53.3293C167.291 53.1991 166.978 52.8568 166.711 52.5688C166.445 52.2807 165.565 51.3233 164.756 50.4411C161.648 47.0512 160.105 45.3788 158.966 44.1635C158.608 43.7814 158.134 43.2627 157.914 43.0108C157.571 42.6197 155.035 39.9151 154.666 39.5482C154.547 39.4297 154.542 39.468 154.534 40.4908C154.53 41.0772 154.514 41.5747 154.5 41.5964C154.486 41.618 154.456 43.1825 154.433 45.0728C154.378 49.5962 154.328 52.7239 154.279 54.7128L154.238 56.3332H162.172C166.536 56.3332 170.106 56.3158 170.106 56.2947ZM171.86 56.2957C171.86 56.2752 171.689 56.0764 171.479 55.8538C171.27 55.6313 170.851 55.1824 170.55 54.8563C167.718 51.7952 166.814 50.8137 163.918 47.6586C161.07 44.5552 159.882 43.2659 159.544 42.9137C159.231 42.588 157.825 41.05 156.49 39.5734C154.952 37.8733 154.601 37.5234 154.601 37.6933C154.601 37.7892 154.825 38.0863 155.215 38.5062C155.552 38.8702 156.05 39.4121 156.32 39.7104C156.59 40.0087 156.984 40.4345 157.197 40.6568C157.58 41.058 158.149 41.6789 158.93 42.5458C159.154 42.7944 159.685 43.3689 160.11 43.8224C160.89 44.6542 162.577 46.487 163.16 47.1366C163.334 47.3299 163.713 47.7419 164.002 48.0522C164.292 48.3624 164.686 48.7897 164.879 49.0015C165.47 49.6498 167.47 51.816 168.014 52.3963C168.297 52.6975 168.67 53.101 168.843 53.293C169.017 53.4849 169.396 53.8974 169.685 54.2097C170.42 55.002 170.891 55.5177 171.281 55.956C171.464 56.1628 171.67 56.3322 171.738 56.3325C171.805 56.3328 171.86 56.3162 171.86 56.2957ZM173.004 56.2408C172.973 56.19 172.648 55.8273 172.281 55.4348C171.915 55.0423 171.125 54.1816 170.527 53.5222C169.468 52.3538 167.275 49.9675 165.204 47.7278C163.676 46.0762 163.281 45.6457 162.318 44.5818C161.836 44.0489 161.205 43.3582 160.915 43.047C160.45 42.5463 158.097 40.0231 156.635 38.4573C156.346 38.1473 155.857 37.6186 155.548 37.2825C155.239 36.9465 154.901 36.5806 154.796 36.4695L154.605 36.2674L154.602 36.4496C154.6 36.6302 155.283 37.4179 156.951 39.1566C157.877 40.1234 159.937 42.3434 161.406 43.9581C162.124 44.7478 163.375 46.1107 163.721 46.4807C163.895 46.6662 164.274 47.0792 164.563 47.3984C164.852 47.7176 165.217 48.113 165.374 48.277C165.53 48.441 165.751 48.6809 165.865 48.81C165.979 48.9392 166.828 49.8672 167.752 50.8722C169.325 52.5833 170.02 53.3423 171.05 54.4742C172.668 56.2508 172.74 56.3234 172.898 56.3282C173.018 56.3323 173.046 56.309 173.004 56.2408ZM174.55 56.1857C174.472 56.1047 173.901 55.4787 173.281 54.7945C172.661 54.1104 171.812 53.1794 171.393 52.7257C170.975 52.2719 170.412 51.6555 170.141 51.356C169.871 51.0565 169.145 50.2641 168.527 49.5951C167.91 48.9261 167.31 48.2728 167.194 48.1433C167.079 48.0138 166.7 47.6047 166.353 47.2343C166.005 46.8639 165.611 46.4368 165.476 46.2852C165.341 46.1335 164.851 45.5983 164.388 45.0958C163.925 44.5933 163.041 43.626 162.424 42.9464C161.806 42.2667 161.175 41.5734 161.02 41.4058C160.866 41.2382 160.405 40.7353 159.996 40.2882C159.588 39.8411 158.546 38.705 157.681 37.7635C156.817 36.822 155.851 35.7612 155.536 35.4063C155.22 35.0513 154.881 34.6896 154.781 34.6025L154.601 34.4442V34.6199C154.601 34.7938 154.998 35.2579 156.881 37.2824C157.648 38.1068 158.342 38.8657 158.951 39.5446C159.202 39.8243 159.749 40.4212 160.166 40.871C160.584 41.3207 161.176 41.9714 161.481 42.3169C161.969 42.8703 162.394 43.3362 164.059 45.1476C164.278 45.3868 165.027 46.1945 165.721 46.9423C166.94 48.2546 167.482 48.845 168.002 49.4275C168.217 49.6694 168.731 50.2279 171.006 52.6943C171.302 53.0155 171.782 53.5311 172.072 53.84C172.362 54.149 172.988 54.8363 173.463 55.3674C174.169 56.1578 174.359 56.333 174.509 56.333H174.691L174.55 56.1857ZM180.741 54.7782C180.715 53.923 180.689 50.0647 180.685 46.2042C180.681 42.3437 180.655 39.1515 180.627 39.1104C180.592 39.0566 180.561 39.0606 180.516 39.1245C180.435 39.2418 180.395 48.8664 180.457 53.0433C180.506 56.2832 180.509 56.333 180.648 56.333C180.788 56.333 180.789 56.3087 180.741 54.7782ZM181.979 55.1382C182.018 53.53 181.968 40.6451 181.922 40.3712C181.9 40.2429 181.851 40.1649 181.802 40.1803C181.709 40.2091 181.707 40.566 181.736 50.4246C181.751 55.4433 181.768 56.333 181.852 56.333C181.932 56.333 181.955 56.1071 181.979 55.1382ZM183.282 49.0498C183.269 45.044 183.232 41.7138 183.199 41.6493C182.993 41.246 182.981 41.6452 182.975 48.9571L182.968 56.333H183.136H183.304L183.282 49.0498ZM184.464 49.5408C184.446 45.8051 184.429 42.7412 184.426 42.7322C184.422 42.723 184.372 42.7159 184.314 42.7159C184.221 42.7159 184.209 43.516 184.209 49.5244V56.333H184.352H184.495L184.464 49.5408ZM185.682 50.1916C185.682 44.8685 185.668 44.0333 185.578 43.9232C185.488 43.8129 185.465 43.8091 185.401 43.8943C185.361 43.9483 185.344 44.0772 185.365 44.1807C185.385 44.2842 185.402 47.0609 185.402 50.351C185.402 56.2894 185.403 56.333 185.542 56.333C185.681 56.333 185.682 56.2894 185.682 50.1916ZM186.945 50.8377C186.945 45.4225 186.93 45.0394 186.73 45.3419C186.697 45.3912 186.668 47.8844 186.666 50.8823C186.662 56.3082 186.662 56.333 186.803 56.333C186.945 56.333 186.945 56.307 186.945 50.8377ZM188.121 51.342C188.104 46.6484 188.095 46.3498 187.98 46.329C187.864 46.3082 187.857 46.5809 187.857 51.32C187.857 56.2946 187.858 56.333 187.998 56.333C188.138 56.333 188.139 56.3001 188.121 51.342ZM197.25 55.2195C193.575 51.6578 189.284 47.5718 189.214 47.5665C189.09 47.5573 189.074 48.0587 189.06 52.3886L189.047 56.333H193.723H198.399L197.25 55.2195ZM119.902 52.2398C119.921 50.2242 119.955 44.9516 119.978 40.5227C120.001 36.0939 120.03 32.0364 120.044 31.506C120.067 30.6235 120.057 30.5278 119.93 30.3767C119.853 30.286 119.766 30.2117 119.736 30.2117C119.706 30.2117 119.677 32.1192 119.672 34.4507C119.666 36.7821 119.645 40.8255 119.625 43.436C119.605 46.0465 119.585 49.5817 119.581 51.2921C119.577 53.0024 119.553 54.6905 119.528 55.0433C119.503 55.4027 119.512 55.7339 119.548 55.7962C119.634 55.943 119.752 56.0118 119.816 55.9523C119.844 55.9259 119.883 54.2553 119.902 52.2398ZM175.202 55.5896C175.18 55.5079 175.011 55.2784 174.827 55.0795C174.19 54.3925 173.017 53.1009 172.843 52.8934C172.654 52.669 171.324 51.2151 170.808 50.6682C170.52 50.3637 169.586 49.3404 168.179 47.7896C167.884 47.4655 167.259 46.7765 166.788 46.2583C166.317 45.7402 165.821 45.1914 165.686 45.0388C165.551 44.8862 164.667 43.9149 163.722 42.8804C162.776 41.8459 161.466 40.4043 160.81 39.6769C160.154 38.9494 159.223 37.9323 158.74 37.4166C158.258 36.9008 157.753 36.3542 157.618 36.2019C157.483 36.0495 157.088 35.6227 156.741 35.2533C156.393 34.8839 155.798 34.2392 155.418 33.8206C155.038 33.402 154.698 33.0315 154.664 32.9973C154.626 32.9598 154.601 33.0182 154.601 33.1447C154.601 33.3149 154.71 33.4683 155.181 33.9598C155.5 34.2928 155.856 34.6725 155.97 34.8035C156.085 34.9346 156.59 35.4765 157.091 36.0079C157.593 36.5392 158.161 37.1562 158.354 37.3788C158.547 37.6015 159.368 38.5046 160.178 39.3858C160.989 40.267 162.031 41.4091 162.494 41.9238C162.957 42.4386 163.541 43.0855 163.792 43.3614C164.043 43.6373 164.662 44.3193 165.169 44.877C165.676 45.4347 167.002 46.89 168.116 48.111C169.23 49.332 170.236 50.4367 170.352 50.566C170.673 50.9254 172.67 53.1034 173.115 53.5807C173.465 53.9562 174.182 54.7571 174.93 55.6077C175.18 55.892 175.281 55.8853 175.202 55.5896ZM118.785 46.1502C118.807 41.3268 118.834 35.5686 118.847 33.3542C118.861 31.1397 118.845 29.2616 118.811 29.1806C118.757 29.0458 118.539 28.9677 118.537 29.0825C118.537 29.1095 118.521 32.6079 118.502 36.8567C118.482 41.1055 118.452 46.8786 118.435 49.6857C118.406 54.3496 118.413 54.7999 118.518 54.9083C118.581 54.9736 118.659 55.0028 118.69 54.9736C118.722 54.9442 118.764 50.9736 118.785 46.1502ZM175.041 53.8396C174.738 53.4602 171.64 50.0595 169.65 47.9213C168.513 46.6992 167.625 45.7333 166.574 44.5768C166.375 44.3581 165.976 43.9206 165.686 43.6047C165.397 43.2888 165.018 42.8741 164.844 42.6832C164.671 42.4923 164.292 42.08 164.002 41.7671C163.713 41.4541 163.35 41.0581 163.195 40.8871C162.616 40.2456 157.764 34.9717 157.197 34.3676C157.023 34.1826 156.471 33.58 155.969 33.0285C155.467 32.4769 154.955 31.9195 154.831 31.7897L154.605 31.5538L154.602 31.7532C154.601 31.9109 154.722 32.0823 155.181 32.5716C155.817 33.2483 157.26 34.8148 158.14 35.7835C158.448 36.1217 158.939 36.6488 159.233 36.9548C159.68 37.4214 161.044 38.9067 162.388 40.3904C162.562 40.5821 162.94 40.9964 163.23 41.3111C163.519 41.6257 163.867 42.0077 164.002 42.1599C164.137 42.3121 164.547 42.7602 164.914 43.1556C165.28 43.551 165.801 44.1211 166.071 44.4225C166.341 44.7238 166.706 45.1186 166.882 45.2998C167.058 45.481 167.295 45.7351 167.409 45.8645C167.522 45.994 168.183 46.7137 168.878 47.4639C170.547 49.2664 173.073 52.0337 174.461 53.5801C175.081 54.2708 175.196 54.3717 175.216 54.2417C175.231 54.1486 175.162 53.9907 175.041 53.8396ZM67.2119 54.1768C67.2342 54.1431 67.4808 53.9744 67.7598 53.8019C68.2689 53.487 69.4408 52.5345 69.9211 52.045C71.1725 50.7697 72.6317 48.7941 73.228 47.5678C74.0109 45.9578 74.7311 43.7454 74.9059 42.4138C74.9745 41.8906 74.9751 41.4157 74.9085 40.1504C74.862 39.2696 74.7948 38.3892 74.759 38.1938C74.5944 37.2959 74.2496 35.9739 73.9935 35.2591C73.4572 33.7625 72.2083 31.7268 70.9772 30.3427C70.4302 29.7276 69.2423 28.6094 68.7935 28.2871C68.3272 27.9521 67.3264 27.369 67.2847 27.4079C67.2682 27.4232 67.5142 27.6153 67.8312 27.8346C69.1742 28.7637 70.7859 30.3965 71.5991 31.652C71.844 32.0301 72.101 32.399 72.1702 32.4718C72.3707 32.6827 73.3822 34.6954 73.6665 35.4491C74.4014 37.3975 74.7486 40.264 74.4761 42.1341C74.0491 45.0641 73.1265 47.4137 71.5565 49.569C70.0274 51.6682 69.2438 52.5147 67.8113 53.6147C66.9658 54.2639 66.9955 54.2381 67.0915 54.2381C67.1355 54.2381 67.1896 54.2106 67.2119 54.1768ZM65.0396 53.4473C65.8089 52.876 67.0315 51.6356 67.7628 50.6845C69.2521 48.7474 70.5981 45.7485 71.1042 43.2397C71.1514 43.0056 71.2219 42.6668 71.2608 42.4868C71.3785 41.9428 71.4198 39.3609 71.3226 38.6234C71.1699 37.4643 71.1307 37.265 70.8658 36.3002C70.5388 35.1091 70.3705 34.6126 70.1111 34.0743C69.9983 33.8402 69.8077 33.4425 69.6874 33.1905C69.5671 32.9384 69.4342 32.688 69.3919 32.634C69.3496 32.58 69.2406 32.4032 69.1496 32.2412C68.7043 31.4482 67.9152 30.446 67.1483 29.6992C66.604 29.1692 66.3627 28.9881 66.2905 29.0555C66.2711 29.0736 66.4882 29.319 66.7729 29.6009C68.0841 30.8996 68.9685 32.2099 69.8144 34.107C70.2597 35.1058 70.675 36.6269 70.8244 37.8059C71.016 39.3174 71.0504 39.8671 71.0089 40.7519C70.8984 43.1101 70.5343 44.6433 69.4775 47.2004C69.1953 47.8834 68.8862 48.4685 68.3708 49.2954C68.1688 49.6194 67.9413 49.9877 67.8654 50.1137C67.478 50.7562 66.4282 51.9353 65.3596 52.9281C64.237 53.9711 64.1548 54.1044 65.0396 53.4473ZM117.589 53.0434C117.616 52.5303 117.627 51.6538 117.615 51.0957C117.593 50.1456 117.6 36.2181 117.625 30.4695C117.636 28.2124 117.623 27.8688 117.529 27.7961C117.469 27.7502 117.393 27.7287 117.36 27.7481C117.267 27.8015 117.265 53.7889 117.357 53.893C117.398 53.9387 117.455 53.9763 117.485 53.9763C117.515 53.9763 117.561 53.5565 117.588 53.0434L117.589 53.0434ZM66.2324 53.8453C66.2562 53.8093 66.2442 53.7799 66.2056 53.7799C66.167 53.7799 66.1159 53.8093 66.0921 53.8453C66.0682 53.8813 66.0803 53.9108 66.1189 53.9108C66.1575 53.9108 66.2085 53.8813 66.2324 53.8453ZM69.0388 53.8453C69.0627 53.8093 69.0506 53.7799 69.0121 53.7799C68.9735 53.7799 68.9224 53.8093 68.8985 53.8453C68.8747 53.8813 68.8868 53.9108 68.9253 53.9108C68.9639 53.9108 69.015 53.8813 69.0388 53.8453ZM67.493 52.7649C68.5534 51.7731 70.2099 49.6301 71.0612 48.1488C71.8211 46.8266 72.8972 43.8809 72.9742 42.9123C72.9928 42.6783 73.0421 42.2775 73.0838 42.0217C73.1632 41.535 73.0592 39.0025 72.9313 38.3064C72.7694 37.4249 72.4232 36.0995 72.1715 35.3969C71.1751 32.6163 68.6061 29.298 66.4604 28.0202C66.1618 27.8424 66.236 27.9946 66.5553 28.215C67.445 28.8291 69.1345 30.688 69.8578 31.8484C70.0935 32.2265 70.372 32.6537 70.4767 32.7977C70.759 33.1859 71.5524 34.7973 71.8322 35.5508C72.4189 37.1312 72.7556 39.0577 72.7391 40.7403C72.7171 42.9756 71.9884 45.715 70.8378 47.8878C70.4029 48.7092 68.6504 51.2278 67.9681 52.0123C67.7332 52.2823 67.2703 52.753 66.9393 53.0583C66.6084 53.3635 66.3376 53.6381 66.3376 53.6683C66.3376 53.7751 66.7972 53.4157 67.493 52.7649ZM69.5978 53.4838C70.0272 53.2179 71.1277 52.3298 71.6228 51.8498C72.6509 50.8528 74.2245 48.7395 74.9013 47.4467C75.6688 45.9805 76.4438 43.6868 76.6545 42.2577C76.7416 41.6672 76.7051 40.1053 76.5749 38.8534C76.4795 37.9364 76.0747 36.2692 75.6989 35.2452C75.1187 33.6646 73.8499 31.6101 72.5797 30.1941C71.7807 29.3033 70.5966 28.2608 69.8992 27.8339C69.122 27.3581 68.9145 27.2875 69.4599 27.6843C71.0468 28.8389 72.3991 30.2191 73.3153 31.6193C73.5745 32.0154 73.8473 32.4196 73.9216 32.5176C74.1643 32.8377 75.0141 34.4847 75.2822 35.1543C75.8233 36.5063 75.9377 36.9679 76.195 38.8381C76.3589 40.0296 76.3685 40.2274 76.3046 41.0865C76.0794 44.1117 75.0451 46.9853 73.3619 49.2626C73.1889 49.4967 72.8746 49.9239 72.6635 50.2119C71.729 51.487 71.0082 52.2322 69.8322 53.1389C69.4538 53.4307 69.1442 53.6795 69.1442 53.6919C69.1442 53.7477 69.2512 53.6981 69.5978 53.4838ZM70.7929 53.387C70.8167 53.351 70.8046 53.3216 70.7661 53.3216C70.7275 53.3216 70.6764 53.351 70.6526 53.387C70.6287 53.423 70.6408 53.4525 70.6794 53.4525C70.718 53.4525 70.769 53.423 70.7929 53.387ZM72.0558 53.2561C72.0796 53.2201 72.0657 53.1906 72.0249 53.1906C71.984 53.1906 71.9505 53.2201 71.9505 53.2561C71.9505 53.2921 71.9645 53.3216 71.9815 53.3216C71.9985 53.3216 72.0319 53.2921 72.0558 53.2561ZM64.5364 52.4712C66.1785 50.861 67.5831 48.8336 68.3012 47.0367C68.4235 46.7307 68.5814 46.3477 68.652 46.1856C68.8019 45.8417 69.1482 44.729 69.3244 44.0252C69.4709 43.4397 69.524 43.0603 69.677 41.5048C69.838 39.8675 69.7495 38.5689 69.3442 36.6275C68.9922 34.941 68.5051 33.7612 67.3709 31.8484C67.0079 31.2362 65.9165 29.9498 65.7601 29.9498C65.674 29.9498 65.8032 30.1403 66.4041 30.8991C66.6607 31.2232 66.9707 31.6419 67.093 31.8296C67.6555 32.6928 68.4773 34.5078 68.7467 35.4818C69.0462 36.5646 69.1393 36.9709 69.2119 37.5113C69.2554 37.8353 69.3211 38.2976 69.3579 38.5386C69.4432 39.0976 69.4447 41.2132 69.3602 41.7868C69.3247 42.0278 69.258 42.49 69.2118 42.8141C69.1657 43.1382 69.0496 43.7274 68.9537 44.1234C68.8578 44.5195 68.753 44.9614 68.7208 45.1054C68.6463 45.4383 68.2223 46.5762 67.9036 47.2986C67.1894 48.9173 65.8154 50.8884 64.313 52.4497C63.9602 52.8163 63.6715 53.1341 63.6715 53.1558C63.6715 53.2601 63.9843 53.0125 64.5364 52.4712ZM71.5867 52.7834C71.7817 52.6293 72.2101 52.2894 72.5387 52.0281C73.7561 51.0599 75.7955 48.5487 76.5197 47.1259C76.986 46.2098 77.3613 45.1382 77.2158 45.1382C77.1272 45.1382 76.9957 45.3769 76.6068 46.2436C76.1159 47.3374 75.6096 48.1214 74.2704 49.8614C73.4538 50.9223 72.7802 51.6299 71.8382 52.4161C71.3598 52.8155 70.9683 53.1541 70.9683 53.1687C70.9683 53.2253 71.2477 53.0512 71.5867 52.7834ZM72.8977 52.7328C74.3371 51.7273 76.3246 49.5392 77.0903 48.1169C77.2156 47.8843 77.3302 47.2986 77.2313 47.3968C77.195 47.4328 76.9554 47.8083 76.6989 48.2312C75.7347 49.8207 74.5856 51.112 72.7925 52.6212C72.4645 52.8972 72.2277 53.1235 72.2663 53.124C72.3049 53.1246 72.589 52.9485 72.8977 52.7328ZM116.455 41.292C116.441 28.8993 116.418 26.5709 116.305 26.4651C116.119 26.2923 116.087 26.5127 116.118 27.7429C116.136 28.4346 116.152 34.3358 116.154 40.8566C116.158 52.6282 116.158 52.7136 116.298 52.8534C116.375 52.9308 116.445 52.9942 116.453 52.9943C116.461 52.9943 116.462 47.7282 116.455 41.292ZM174.41 51.7038C173.994 51.2433 173.179 50.3544 172.599 49.7284C172.019 49.1025 171.418 48.4496 171.264 48.2776C171.11 48.1057 170.589 47.5453 170.106 47.0324C169.131 45.9955 168.907 45.7518 167.902 44.6349C167.519 44.2096 167.077 43.7279 166.92 43.5644C166.762 43.4009 166.423 43.0327 166.167 42.746C165.73 42.2581 164.98 41.4354 163.125 39.4102C162.701 38.9465 162.196 38.4017 162.003 38.1995C161.81 37.9972 161.447 37.6014 161.196 37.3199C160.29 36.3028 157.271 33.008 155.601 31.2129C154.678 30.222 154.601 30.1544 154.601 30.3435C154.601 30.5016 154.697 30.6489 155.019 30.9858C155.249 31.2262 155.668 31.6748 155.949 31.9828C156.23 32.2908 157.027 33.1598 157.719 33.9141C158.412 34.6683 159.261 35.5947 159.606 35.9728C159.951 36.3509 160.463 36.9106 160.743 37.2167C161.96 38.5429 163.604 40.3339 164.318 41.1098C164.743 41.5711 165.69 42.601 166.423 43.3985C167.567 44.6433 168.468 45.6166 170.703 48.0227C170.934 48.272 171.439 48.8224 171.825 49.2457C175.014 52.7452 175.12 52.856 175.145 52.6902C175.161 52.5801 174.968 52.3213 174.41 51.7038ZM153.545 47.1021C153.587 44.2396 153.629 41.1249 153.638 40.1806L153.654 38.4636L153.47 38.2924L153.287 38.1213L153.295 39.5184C153.299 40.2869 153.276 42.8452 153.243 45.2037C153.209 47.5621 153.175 50.0368 153.166 50.7029C153.152 51.8018 153.162 51.9341 153.287 52.1302C153.362 52.2492 153.433 52.3375 153.445 52.3266C153.457 52.3156 153.502 49.9646 153.545 47.1021ZM174.829 50.8433C174.299 50.2372 173.57 49.4357 171.791 47.5059C170.884 46.5217 170.015 45.5758 169.861 45.4039C169.706 45.232 169.296 44.787 168.949 44.4151C168.145 43.5538 167.606 42.9674 166.212 41.4378C165.595 40.7599 164.711 39.7924 164.248 39.2878C162.213 37.0707 159.555 34.1571 159.161 33.7138C159.026 33.5616 158.158 32.6211 157.232 31.6237C156.306 30.6263 155.462 29.7062 155.357 29.579C155.253 29.4517 155.04 29.2187 154.884 29.061L154.601 28.7744V28.9601C154.601 29.1422 154.766 29.348 155.899 30.578C156.092 30.7875 156.644 31.3887 157.127 31.9139C157.609 32.4391 158.288 33.174 158.635 33.5471C159.199 34.1528 159.777 34.7877 160.878 36.011C161.07 36.224 161.354 36.5318 161.51 36.6949C161.665 36.858 162.187 37.4299 162.669 37.9658C163.152 38.5016 163.894 39.3138 164.318 39.7705C164.743 40.2272 165.295 40.8298 165.546 41.1095C165.797 41.3892 166.349 41.9905 166.774 42.4458C167.59 43.3216 169.304 45.1768 170.165 46.1155C170.447 46.4241 170.91 46.9271 171.193 47.2331C171.476 47.5392 171.86 47.9566 172.047 48.1608C172.234 48.3649 173.002 49.2052 173.755 50.028C174.856 51.2325 175.127 51.4953 175.145 51.3768C175.16 51.2785 175.055 51.1014 174.829 50.8433ZM140.639 51.2953C140.639 51.2249 140.313 50.8199 139.915 50.3951C139.517 49.9703 138.315 48.6652 137.243 47.495C134.772 44.7971 133.384 43.2904 133.023 42.9137C132.71 42.5881 131.304 41.0501 129.969 39.5735C128.431 37.8734 128.08 37.5235 128.08 37.6934C128.08 37.7893 128.304 38.0863 128.694 38.5063C129.031 38.8703 129.529 39.4121 129.799 39.7104C130.069 40.0087 130.463 40.4346 130.676 40.6569C131.059 41.0581 131.628 41.6789 132.409 42.5459C132.633 42.7945 133.164 43.3689 133.589 43.8225C134.369 44.6543 136.056 46.4871 136.639 47.1367C136.813 47.3299 137.192 47.7416 137.481 48.0515C137.771 48.3614 138.15 48.772 138.323 48.9639C139.147 49.8749 140.588 51.423 140.612 51.423C140.627 51.423 140.639 51.3655 140.639 51.2953ZM141.481 50.9027C141.481 50.7757 141.27 50.5216 140.281 49.4543C137.458 46.406 136.906 45.8069 135.797 44.5818C135.315 44.0489 134.684 43.3582 134.394 43.047C133.929 42.5463 131.576 40.0232 130.114 38.4574C129.825 38.1473 129.336 37.6186 129.027 37.2826C128.718 36.9465 128.38 36.5806 128.275 36.4695L128.084 36.2674L128.081 36.4497C128.079 36.6302 128.762 37.4179 130.43 39.1566C131.364 40.1308 133.484 42.416 134.885 43.9588C135.136 44.235 135.651 44.7975 136.031 45.2088C136.41 45.62 136.947 46.2046 137.224 46.5078C137.5 46.811 137.868 47.211 138.042 47.3968C138.216 47.5826 138.595 47.9947 138.884 48.3125C139.173 48.6304 139.568 49.059 139.761 49.2649C139.954 49.4708 140.396 49.9514 140.743 50.3328C141.091 50.7141 141.398 51.0271 141.427 51.0282C141.456 51.0293 141.481 50.9729 141.481 50.9027ZM152.348 47.8551C152.356 45.7823 152.373 44.4401 152.462 39.2178C152.494 37.2866 152.49 37.1864 152.361 37.0574C152.287 36.9829 152.214 36.8337 152.198 36.7257C152.183 36.6177 152.158 37.2805 152.144 38.1987C152.13 39.1169 152.113 40.1333 152.105 40.4573C152.097 40.7814 152.069 43.2174 152.042 45.8706C151.994 50.4966 151.997 50.7014 152.121 50.8557L152.25 51.0166L152.295 50.5488C152.32 50.2915 152.344 49.0793 152.348 47.8551ZM174.275 48.8915C173.784 48.3575 173.143 47.6579 172.85 47.3369C172.557 47.0159 172.174 46.6022 172.001 46.4176C171.827 46.233 171.164 45.509 170.527 44.8087C169.891 44.1083 168.99 43.1227 168.527 42.6183C167.597 41.6068 166.367 40.2578 165.932 39.7724C165.777 39.6003 165.493 39.2875 165.3 39.0772C165.107 38.867 164.275 37.9573 163.451 37.0557C162.626 36.154 161.758 35.2075 161.521 34.9523C161.284 34.6971 160.87 34.2421 160.6 33.9413C160.329 33.6404 159.951 33.2285 159.758 33.0259C159.565 32.8233 159.186 32.4123 158.916 32.1125C158.646 31.8128 158.267 31.4018 158.074 31.1994C157.881 30.9969 157.107 30.1565 156.355 29.3318C155.602 28.5071 154.901 27.7417 154.796 27.6309L154.605 27.4294L154.602 27.6298C154.6 27.7936 154.757 27.9986 155.46 28.7515C156.209 29.5546 157.699 31.1752 160.713 34.4671C161.158 34.9532 161.883 35.7512 162.324 36.2405C162.764 36.7297 163.597 37.643 164.175 38.27C165.534 39.7452 166.305 40.583 166.913 41.2465C167.184 41.5411 167.736 42.1428 168.141 42.5837C168.546 43.0246 169.004 43.5248 169.159 43.6952C169.313 43.8657 170.197 44.8253 171.123 45.8278C173.558 48.4631 174.267 49.2378 174.72 49.7554C175.099 50.1883 175.124 50.2051 175.144 50.039C175.162 49.8944 175.005 49.687 174.275 48.8915ZM151.168 48.4607C151.171 47.7675 151.183 46.5376 151.193 45.7274C151.334 34.9636 151.339 35.3182 151.059 35.3182C150.965 35.3182 150.952 35.689 150.946 38.4442C150.941 41.5873 150.936 42.0174 150.849 46.7955C150.807 49.1194 150.814 49.4194 150.914 49.5615C150.975 49.6491 151.057 49.7209 151.094 49.7209C151.136 49.7209 151.165 49.2338 151.168 48.4607ZM141.363 48.9104C141.182 48.6933 140.567 48.0213 139.832 47.2354C139.484 46.8644 139.09 46.4368 138.955 46.2852C138.82 46.1336 138.33 45.5984 137.867 45.0958C137.404 44.5933 136.52 43.6261 135.903 42.9464C135.285 42.2667 134.654 41.5735 134.499 41.4059C134.345 41.2383 133.884 40.7353 133.475 40.2882C133.067 39.8411 132.025 38.705 131.16 37.7635C130.296 36.822 129.33 35.7613 129.015 35.4063C128.699 35.0513 128.36 34.6896 128.26 34.6026L128.08 34.4443V34.62C128.08 34.7938 128.477 35.2579 130.36 37.2824C131.127 38.1069 131.821 38.8658 132.43 39.5446C132.681 39.8244 133.228 40.4212 133.645 40.871C134.063 41.3208 134.655 41.9715 134.96 42.3169C135.448 42.8703 135.872 43.3363 137.538 45.1476C137.757 45.3869 138.506 46.1945 139.2 46.9424C140.734 48.5938 141.202 49.1064 141.34 49.2848C141.444 49.4194 141.446 49.4188 141.468 49.2423C141.481 49.1411 141.435 48.9972 141.363 48.9104ZM175.158 48.6888C175.158 48.5518 174.959 48.2929 174.339 47.625C173.889 47.1394 173.36 46.5632 173.164 46.3445C172.968 46.1257 172.05 45.1241 171.124 44.1186C170.198 43.1131 169.283 42.1175 169.09 41.9062C168.896 41.695 168.58 41.3518 168.387 41.1437C167.489 40.1747 166.115 38.6808 165.862 38.3978C165.707 38.2254 164.906 37.3515 164.081 36.4557C163.255 35.56 162.255 34.4736 161.858 34.0415C161.46 33.6095 160.888 32.988 160.587 32.6604C159.35 31.3179 157.829 29.6594 156.928 28.6733C154.813 26.357 154.601 26.1404 154.601 26.303C154.601 26.4791 154.924 26.8751 156.109 28.1527C156.965 29.0752 159.369 31.6921 162.599 35.2164C163.583 36.2902 164.625 37.4243 164.914 37.7366C165.204 38.0489 165.788 38.6838 166.212 39.1475C166.637 39.6112 167.142 40.1566 167.335 40.3594C167.528 40.5623 168.019 41.0945 168.426 41.5421C169.195 42.3864 170.059 43.33 171.968 45.4076C172.584 46.0778 173.546 47.1298 174.106 47.7453C174.665 48.3609 175.131 48.8657 175.14 48.8671C175.151 48.8682 175.158 48.7884 175.158 48.6888ZM150.012 46.562C150.016 45.5089 150.044 42.3321 150.074 39.5025C150.129 34.2731 150.122 34.0743 149.88 34.0743C149.816 34.0743 149.793 34.3851 149.789 35.3018C149.785 35.9769 149.759 39.1398 149.729 42.3304C149.677 47.7698 149.681 48.1422 149.795 48.3042C149.861 48.3993 149.936 48.477 149.961 48.4769C149.985 48.4768 150.008 47.6151 150.012 46.562ZM141.481 47.753C141.481 47.604 141.394 47.4655 141.141 47.2129C140.851 46.9222 140.128 46.1267 139.165 45.0388C139.03 44.8862 138.146 43.9149 137.201 42.8804C136.255 41.8459 134.945 40.4043 134.289 39.6769C133.633 38.9495 132.702 37.9323 132.219 37.4166C131.737 36.9009 131.232 36.3543 131.097 36.2019C130.962 36.0496 130.567 35.6227 130.22 35.2533C129.872 34.8839 129.277 34.2392 128.897 33.8206C128.517 33.402 128.177 33.0316 128.143 32.9973C128.105 32.9598 128.08 33.0183 128.08 33.1448C128.08 33.3149 128.189 33.4683 128.66 33.9598C128.979 34.2928 129.335 34.6725 129.449 34.8036C129.564 34.9346 130.069 35.4766 130.57 36.0079C131.072 36.5393 131.64 37.1562 131.833 37.3789C132.026 37.6015 132.847 38.5047 133.657 39.3858C134.468 40.267 135.51 41.4096 135.973 41.9251C136.436 42.4405 137.006 43.0723 137.241 43.3291C138.044 44.2097 139.341 45.6369 140.392 46.7947C140.97 47.4319 141.452 47.9533 141.462 47.9533C141.472 47.9533 141.481 47.8632 141.481 47.753ZM148.831 46.5294C148.82 46.1423 148.839 42.9367 148.871 39.4058C148.923 33.6701 148.917 32.9771 148.821 32.9025C148.762 32.8567 148.683 32.8369 148.645 32.8585C148.602 32.8833 148.575 34.2647 148.573 36.5794C148.571 38.6042 148.549 41.7568 148.523 43.5852L148.476 46.9096L148.639 47.0714C148.729 47.1603 148.813 47.2331 148.826 47.2331C148.839 47.2331 148.841 46.9165 148.831 46.5294ZM141.551 46.3638C141.551 46.2689 141.276 45.9147 140.796 45.3904C140.382 44.937 139.821 44.3211 139.551 44.0217C139.281 43.7223 138.918 43.3257 138.744 43.1405C138.571 42.9552 138.192 42.5425 137.902 42.2233C137.613 41.9041 137.248 41.5087 137.091 41.3447C136.935 41.1807 136.714 40.941 136.6 40.812C136.279 40.4467 131.36 35.0969 130.676 34.3676C130.502 34.1826 129.949 33.58 129.448 33.0285C128.946 32.4769 128.434 31.9195 128.31 31.7897L128.083 31.5538L128.081 31.7532C128.08 31.9109 128.201 32.0823 128.66 32.5716C129.296 33.2483 130.739 34.8148 131.619 35.7835C131.927 36.1217 132.418 36.6488 132.712 36.9548C133.159 37.4213 134.523 38.9067 135.867 40.3904C136.04 40.5821 136.419 40.9964 136.709 41.311C136.998 41.6257 137.346 42.0076 137.481 42.1599C137.616 42.3121 138.026 42.7602 138.393 43.1556C138.759 43.551 139.28 44.1204 139.55 44.4209C139.82 44.7213 140.199 45.1335 140.392 45.3369C140.585 45.5402 140.911 45.888 141.116 46.1098C141.32 46.3316 141.502 46.513 141.519 46.513C141.536 46.513 141.551 46.4459 141.551 46.3638ZM147.646 44.6308C147.65 43.9197 147.667 41.9532 147.685 40.2609C147.754 33.8606 147.749 31.8818 147.662 31.7307C147.42 31.3077 147.41 31.4811 147.393 36.3166C147.384 38.918 147.358 42.0682 147.336 43.3169C147.298 45.3753 147.305 45.603 147.413 45.7556C147.477 45.8482 147.555 45.9238 147.585 45.9238C147.616 45.9238 147.643 45.342 147.646 44.6308ZM141.551 44.9887C141.551 44.8519 141.076 44.2676 140.368 43.531C140.227 43.3852 139.902 43.0317 139.646 42.7454C139.208 42.2571 138.436 41.4114 136.604 39.4102C136.18 38.9465 135.675 38.4017 135.482 38.1995C135.289 37.9972 134.926 37.6014 134.675 37.3199C133.769 36.3028 130.75 33.008 129.079 31.2129C128.157 30.222 128.08 30.1544 128.08 30.3435C128.08 30.5016 128.176 30.649 128.498 30.9858C128.728 31.2262 129.147 31.6748 129.428 31.9828C129.709 32.2908 130.506 33.1598 131.198 33.9141C131.891 34.6683 132.74 35.5948 133.085 35.9728C134.03 37.0083 135.091 38.1648 137.855 41.1699C138.157 41.4981 139.1 42.5253 139.951 43.4524C140.802 44.3796 141.51 45.1382 141.524 45.1382C141.539 45.1382 141.551 45.0709 141.551 44.9887ZM146.497 41.2972C146.57 30.6681 146.569 30.489 146.429 30.3449C146.358 30.2717 146.272 30.2117 146.239 30.2117C146.205 30.2117 146.185 30.7199 146.194 31.341C146.203 31.9622 146.201 35.145 146.19 38.414C146.171 43.8748 146.178 44.3713 146.286 44.5245C146.351 44.6163 146.42 44.6764 146.439 44.6581C146.459 44.6398 146.484 43.1274 146.497 41.2972ZM141.293 43.1977C141.145 43.0348 140.898 42.761 140.744 42.5892C140.589 42.4174 139.684 41.4256 138.732 40.3851C133.912 35.1196 133.047 34.1729 132.64 33.7138C132.505 33.5616 131.637 32.6211 130.711 31.6237C129.785 30.6263 128.941 29.7062 128.836 29.579C128.732 29.4517 128.519 29.2187 128.363 29.061L128.08 28.7744V28.9601C128.08 29.1422 128.245 29.348 129.378 30.578C129.571 30.7875 130.123 31.3887 130.605 31.9139C131.088 32.4391 131.767 33.174 132.114 33.5471C132.678 34.1528 133.256 34.7877 134.357 36.011C134.549 36.224 134.833 36.5318 134.989 36.6949C135.144 36.858 135.666 37.4299 136.148 37.9658C136.631 38.5016 137.373 39.3143 137.797 39.7717C138.222 40.2291 138.752 40.8062 138.976 41.0541C139.2 41.302 139.863 42.0222 140.449 42.6545C141.347 43.623 141.519 43.7798 141.538 43.649C141.553 43.5443 141.474 43.3974 141.293 43.1977ZM145.351 36.3002C145.364 32.3934 145.348 29.1602 145.318 29.1152C145.256 29.0268 145.059 29.0018 145.059 29.0824C145.059 29.1094 145.041 32.27 145.019 36.1059L144.98 43.0804L145.132 43.2617C145.217 43.3613 145.295 43.434 145.306 43.4231C145.318 43.4122 145.338 40.2069 145.351 36.3002ZM141.551 42.2956C141.551 42.1876 141.255 41.8102 140.621 41.1103C140.11 40.5455 139.565 39.943 139.411 39.7715C139.256 39.5999 138.972 39.2875 138.779 39.0772C138.586 38.867 137.754 37.9573 136.93 37.0557C136.105 36.154 135.237 35.2075 135 34.9523C134.763 34.6971 134.349 34.2421 134.078 33.9413C133.808 33.6404 133.429 33.2285 133.237 33.0259C133.044 32.8234 132.665 32.4123 132.395 32.1125C132.124 31.8127 131.746 31.4018 131.553 31.1994C131.36 30.9969 130.586 30.1565 129.834 29.3318C129.081 28.5071 128.38 27.7417 128.275 27.6309L128.084 27.4294L128.081 27.6298C128.079 27.7936 128.236 27.9986 128.939 28.7515C129.688 29.5546 131.178 31.1752 134.192 34.4671C134.637 34.9532 135.362 35.7512 135.803 36.2405C136.243 36.7297 137.076 37.643 137.654 38.27C138.232 38.8969 138.961 39.6897 139.276 40.0318C139.59 40.3739 140.064 40.89 140.33 41.1788C140.596 41.4675 140.966 41.8726 141.152 42.0789C141.338 42.2853 141.504 42.4541 141.52 42.4541C141.537 42.4541 141.551 42.3827 141.551 42.2956ZM144.181 40.6402C144.161 40.5607 144.144 37.6542 144.143 34.1811C144.14 28.8206 144.126 27.8548 144.041 27.7895C143.987 27.7473 143.909 27.732 143.868 27.7556C143.816 27.7855 143.801 29.9226 143.819 34.8318C143.844 41.636 143.849 41.8696 143.978 42.0032C144.11 42.1402 144.112 42.1359 144.164 41.463C144.192 41.0899 144.2 40.7197 144.181 40.6402ZM140.59 39.7686C140.057 39.1877 139.495 38.5711 139.341 38.3984C139.186 38.2257 138.385 37.3515 137.559 36.4558C136.734 35.56 135.734 34.4736 135.337 34.0415C134.939 33.6095 134.367 32.988 134.066 32.6604C132.829 31.3179 131.308 29.6594 130.407 28.6733C128.292 26.357 128.08 26.1404 128.08 26.303C128.08 26.4791 128.403 26.8751 129.588 28.1527C130.444 29.0752 132.848 31.6921 136.078 35.2165C137.062 36.2903 138.104 37.4243 138.393 37.7366C138.683 38.0489 139.267 38.6834 139.691 39.1466C140.116 39.6099 140.649 40.1826 140.876 40.4195C141.104 40.6563 141.34 40.923 141.403 41.012L141.516 41.1739L141.537 40.9993C141.555 40.8563 141.384 40.6334 140.59 39.7686ZM142.985 35.6946C142.935 28.0931 142.908 26.5421 142.827 26.4663C142.641 26.2926 142.608 26.5111 142.637 27.7429C142.653 28.4346 142.671 31.6001 142.676 34.7773C142.687 40.423 142.69 40.5578 142.826 40.7185C142.902 40.8089 142.977 40.8829 142.992 40.8829C143.007 40.8829 143.004 38.5481 142.985 35.6946ZM27.7552 37.8059C27.9875 36.4125 28.0452 36.1881 28.39 35.3367C28.539 34.9688 28.6609 34.6498 28.6609 34.6277C28.6609 34.4655 29.6319 32.7761 30.1078 32.1103C31.1224 30.691 31.2619 30.5294 32.3768 29.4841C33.4098 28.5155 34.4289 27.7382 35.4881 27.111C36.1721 26.706 37.7905 25.9382 38.2687 25.7919C38.5171 25.7158 38.7329 25.6185 38.7482 25.5757C38.7696 25.5155 36.0584 25.5015 26.8953 25.5143L15.0145 25.5309L14.9795 32.1758C14.9602 35.8305 14.9527 38.8334 14.963 38.849C14.9733 38.8646 16.3466 38.8898 18.015 38.9052C19.6834 38.9205 21.0619 38.945 21.0784 38.9594C21.0948 38.9738 22.5609 38.9781 24.3362 38.9687L27.5642 38.9516L27.7552 37.8059ZM14.2116 32.2085C14.2108 25.5574 14.2103 25.5307 14.0689 25.5099C13.9273 25.489 13.927 25.5017 13.927 32.1603C13.927 35.8295 13.9492 38.8522 13.9762 38.8774C14.0033 38.9027 14.0675 38.915 14.1189 38.9048C14.196 38.8894 14.2123 37.7179 14.2116 32.2085ZM9.67526 38.7388C9.67142 38.6937 9.66349 35.6962 9.65772 32.0775C9.64727 25.545 9.64621 25.4981 9.50687 25.4981C9.36747 25.4981 9.36655 25.5417 9.36655 32.1803V38.8625L9.52441 38.8415C9.61124 38.8299 9.67912 38.7839 9.67526 38.7388ZM10.7526 32.1585C10.7703 25.5517 10.7693 25.4981 10.6311 25.4981C10.4931 25.4981 10.4916 25.5631 10.4729 32.1266C10.4625 35.7723 10.4648 38.7789 10.4781 38.8079C10.4913 38.8369 10.5545 38.8512 10.6184 38.8397C10.7255 38.8205 10.7361 38.2988 10.7526 32.1585ZM11.9274 32.1757C11.9274 25.5744 11.9265 25.5308 11.7871 25.5308C11.6478 25.5308 11.6467 25.58 11.6289 32.1967L11.611 38.8625L11.7692 38.8416L11.9274 38.8207L11.9274 32.1757ZM13.0851 32.1757C13.0851 25.5417 13.0842 25.4981 12.9448 25.4981C12.8054 25.4981 12.8045 25.5417 12.8045 32.1757C12.8045 38.8097 12.8054 38.8533 12.9448 38.8533C13.0842 38.8533 13.0851 38.8097 13.0851 32.1757ZM76.4713 34.2318C76.181 33.332 76.0033 33.0113 75.2287 31.989C73.7942 30.0957 72.3401 28.7102 70.8387 27.8058C70.5165 27.6118 70.2418 27.4635 70.2281 27.4762C70.2145 27.489 70.478 27.6954 70.8138 27.9351C72.2007 28.9247 73.8819 30.5949 74.72 31.8156C74.9425 32.1397 75.282 32.6258 75.4746 32.8958C75.6671 33.1659 76.0186 33.7582 76.2556 34.2122C76.4925 34.6662 76.6946 35.0317 76.7046 35.0245C76.7139 35.0173 76.6097 34.6606 76.4713 34.2318ZM97.8791 33.1634C98.3876 31.978 98.3962 30.1058 97.8993 28.7387C97.6159 27.959 97.4199 27.6321 96.955 27.1641C96.5428 26.7492 96.5261 26.7871 96.9124 27.2604C97.4361 27.9022 97.7805 28.7855 97.8749 29.7288C97.9773 30.7524 97.5261 32.485 96.9539 33.2648C96.561 33.8003 96.4894 33.9893 96.7998 33.6716C97.102 33.3622 97.4357 32.842 97.7443 32.1988L97.9911 31.6847L97.9489 32.1251C97.8987 32.6491 97.6839 33.339 97.4441 33.7469L97.2708 34.0415L97.4825 33.818C97.5989 33.6951 97.7773 33.4006 97.8791 33.1634ZM98.9632 33.1904C99.247 32.637 99.3884 31.956 99.4321 30.9318C99.5016 29.3033 99.1344 28.2332 98.1997 27.34C97.9441 27.0957 97.8013 26.9716 97.8824 27.0643C98.3654 27.6161 98.8451 28.457 99.0012 29.0255C99.1455 29.5512 99.2324 30.9746 99.163 31.6783C99.0986 32.3316 98.8791 33.1527 98.6871 33.4579C98.6171 33.569 98.5048 33.7458 98.4374 33.8507C98.3262 34.0237 98.3357 34.0201 98.5384 33.8124C98.6612 33.6863 98.8524 33.4064 98.9632 33.1904ZM100.215 33.0035C100.604 32.2663 100.787 31.5306 100.786 30.7117C100.786 29.4908 100.575 28.7366 100.004 27.9127C99.7038 27.4788 99.0369 26.8186 98.759 26.6798C98.6664 26.6336 98.7928 26.7853 99.0398 27.0169C100.295 28.194 100.756 29.8782 100.37 31.8753C100.269 32.3987 100.156 32.7281 99.9308 33.1603C99.6533 33.692 99.6435 33.7273 99.8152 33.5737C99.9185 33.4813 100.099 33.2247 100.215 33.0035ZM101.447 32.8893C101.852 32.1903 102.05 31.4377 102.049 30.6049C102.047 29.7677 101.927 29.2099 101.596 28.4971C101.266 27.7864 101.085 27.5529 100.482 27.0595L99.98 26.6486L100.337 27.0071C101.345 28.0209 101.771 29.0869 101.768 30.5938C101.765 31.6107 101.565 32.4023 101.084 33.2886C100.897 33.6336 100.884 33.68 101.016 33.5336C101.106 33.4343 101.3 33.1444 101.447 32.8893ZM102.681 32.8955C103.04 32.3722 103.318 31.4641 103.363 30.6666C103.423 29.6116 103.227 28.8359 102.696 28.0191C102.35 27.4879 102.03 27.17 101.526 26.8574L101.103 26.5946L101.629 27.0773C102.504 27.8803 102.91 28.6864 103.04 29.884C103.189 31.2536 102.915 32.3923 102.217 33.3123L101.962 33.6484L102.22 33.4192C102.362 33.2932 102.57 33.0575 102.681 32.8955ZM95.1221 32.5863C95.5042 31.9031 95.6688 31.3236 95.713 30.5059C95.7808 29.2488 95.4285 27.9196 94.8625 27.298L94.6837 27.1016L94.8681 27.4867C95.2185 28.2188 95.3257 28.73 95.3642 29.8546C95.3935 30.7042 95.3775 31.005 95.278 31.4258C95.1114 32.1348 94.8114 32.8879 94.5443 33.2675L94.3223 33.5829L94.5981 33.3064C94.7498 33.1543 94.9856 32.8303 95.1221 32.5863ZM96.4397 32.6684C96.8105 31.9609 97.0881 30.9683 97.0902 30.3423C97.0929 29.647 96.8336 28.6966 96.4391 27.9527C96.1522 27.4118 95.6962 26.8599 95.4309 26.7328C95.326 26.6826 95.3574 26.738 95.5322 26.9136C96.9662 28.3502 97.1773 30.8541 96.0467 33.0144L95.7491 33.5829L95.9909 33.3231C96.1239 33.1802 96.3258 32.8856 96.4397 32.6684ZM104.199 31.8012C104.462 31.2477 104.555 30.3377 104.4 29.8405C104.29 29.4888 103.894 28.7041 103.979 29.0066C104.292 30.1253 104.289 31.3002 103.971 32.0731C103.947 32.1293 103.949 32.1753 103.975 32.1753C104 32.1753 104.102 32.007 104.199 31.8012ZM74.1505 29.4274C73.9237 29.2284 73.4711 28.8889 73.1448 28.6729C72.151 28.015 72.1654 28.0542 73.2217 28.8827C73.5066 29.1061 73.9133 29.4536 74.1255 29.6549C74.4286 29.9422 74.517 29.9959 74.5372 29.9049C74.5538 29.8299 74.4172 29.6612 74.1505 29.4274ZM51.953 18.7032C50.7769 17.8041 46.7419 14.7256 42.9862 11.862C39.2306 8.99838 36.1602 6.63068 36.1631 6.60043C36.1683 6.54651 37.2903 6.25562 37.5054 6.25244C37.6085 6.2509 39.035 7.3424 49.3534 15.318C51.6826 17.1184 54.0466 18.9425 54.6067 19.3717C55.7594 20.2551 55.7543 20.2151 54.7244 20.2911L54.0915 20.3378L51.953 18.7032Z" fill="#0B0B0B"/>
<path d="M78.3968 19.3737C76.9667 19.182 75.9909 18.3683 75.713 17.1355C75.6055 16.6592 75.605 15.7099 75.7117 15.2267C75.7573 15.0209 75.8867 14.68 75.9995 14.469C76.1123 14.2581 76.2134 14.0665 76.2242 14.0434C76.2347 14.0202 73.6331 14.0067 70.4422 14.0134C65.0958 14.0246 64.6185 14.0187 64.3588 13.9382C64.083 13.8527 63.6824 13.553 63.6807 13.431C63.6803 13.3972 63.6581 13.3374 63.6314 13.2982C63.5926 13.2409 63.5531 13.2546 63.4316 13.368C62.7738 13.9818 61.5198 14.2818 60.3124 14.1142C59.895 14.0562 59.8211 14.0599 59.4409 14.1572C58.0931 14.5023 56.9487 14.5026 56.2814 14.1582C55.5858 13.7992 55.4051 13.0526 55.4077 10.5489C55.4093 9.13319 55.367 8.91737 55.0201 8.56616C54.4828 8.02231 53.1632 8.08533 52.378 8.69235L52.1725 8.85124V11.43V14.0087H51.4871H50.8018L50.8157 9.13784L50.8297 4.26693L51.5011 4.25259L52.1724 4.23825V6.11289V7.98751L52.4232 7.77186C52.9134 7.3502 53.72 7.12189 54.515 7.17979C55.6814 7.26475 56.3332 7.75861 56.6487 8.79635C56.7366 9.08554 56.7489 9.34045 56.7505 10.9149C56.7524 12.6676 56.7549 12.7102 56.8778 12.9672C56.9468 13.1116 57.0771 13.2957 57.1674 13.3763C57.3211 13.5136 57.3602 13.5229 57.78 13.5218C58.0641 13.521 58.3322 13.4872 58.5117 13.4295L58.7951 13.3385L58.6506 13.0472C58.5266 12.7971 58.5062 12.6872 58.5062 12.2701C58.5062 11.8539 58.5267 11.7429 58.6496 11.4951C58.912 10.966 59.4136 10.629 60.2117 10.4456C60.9004 10.2873 62.5099 10.3484 63.3476 10.5646L63.4794 10.5986L63.4457 9.91301C63.4272 9.53591 63.3825 9.14197 63.3464 9.03758C63.2585 8.78334 63.0048 8.50496 62.7507 8.38402C62.4629 8.24701 61.8849 8.17007 61.4464 8.21039C60.5372 8.29398 60.0685 8.6553 59.9614 9.35522L59.9262 9.58534L59.3092 9.59982C58.5865 9.61679 58.5969 9.62499 58.692 9.11549C58.8684 8.17071 59.5622 7.53549 60.7002 7.27704C61.224 7.15805 62.4346 7.15551 62.8997 7.2724C63.7971 7.49798 64.3357 7.94314 64.6207 8.69465C64.738 9.00405 64.7469 9.12365 64.7762 10.7871C64.8104 12.7257 64.8245 12.8093 65.1339 12.8995C65.2243 12.9259 66.0443 12.9586 66.9561 12.9722L68.614 12.997V10.6903V8.38357H67.2987H65.9834V7.84662V7.30967H67.9837H69.9841V10.1478V12.986H72.0941H74.2041V10.686V8.38605L73.2861 8.37203L72.3682 8.35801L72.3525 7.83385L72.3369 7.30968H73.8444H75.352L75.3672 8.01284L75.3824 8.71598L75.5307 8.48064C76.0805 7.60789 76.8367 7.19029 77.876 7.18545C78.366 7.18313 78.9099 7.26005 79.0716 7.35447C79.1244 7.38532 79.1433 7.552 79.1422 7.97955C79.1414 8.30021 79.1396 8.57758 79.1396 8.59592C79.1385 8.61426 79.0203 8.59631 78.8771 8.55612C78.734 8.51591 78.4072 8.46983 78.151 8.45376C77.2604 8.39789 76.5113 8.64265 75.9189 9.18294L75.5751 9.4965V11.2469V12.9972L77.7262 12.9793C79.6816 12.963 79.9097 12.9698 80.2336 13.0551C80.9749 13.2501 81.5657 13.6276 81.8581 14.0932C82.0331 14.3719 82.2066 14.8793 82.2066 15.1128V15.2872H81.5824H80.9582L80.9204 15.0955C80.8154 14.5635 80.4515 14.173 79.9285 14.0312C79.4783 13.909 78.4413 13.9453 78.0865 14.0956C77.539 14.3276 77.1405 14.8038 76.9999 15.3941C76.8903 15.8535 76.9521 16.9258 77.11 17.3068C77.3017 17.7693 77.7419 18.1586 78.2373 18.3036C78.5894 18.4067 78.7095 18.4137 79.9047 18.3996C81.4371 18.3816 81.7739 18.3771 82.5468 18.3648L83.1337 18.3554L82.9209 17.9847C82.577 17.3855 82.5127 17.111 82.5101 16.2332C82.5075 15.3768 82.5604 15.1045 82.8387 14.5356C83.1658 13.8671 83.813 13.3548 84.641 13.1092C85.244 12.9303 86.1093 12.8882 86.7553 13.0065C87.1518 13.079 87.5436 13.0896 89.3858 13.0772L91.5504 13.0626L91.6171 12.6535C91.6536 12.4285 91.7254 12.1409 91.7765 12.0143C92.2272 10.8967 93.4823 10.2225 95.2227 10.1628L95.6612 10.1478L95.6769 10.6102L95.6926 11.0727L95.1252 11.1319C94.5013 11.197 93.9416 11.3628 93.5995 11.584C93.1855 11.8517 92.8938 12.3819 92.8938 12.8668V13.0893L95.2641 13.076L97.6344 13.0626L97.6713 12.7501C97.8608 11.1473 99.1542 10.233 101.334 10.1613L101.745 10.1478L101.76 10.6136L101.776 11.0794L101.35 11.1147C100.442 11.1899 99.7524 11.4341 99.4056 11.8027C99.1619 12.0617 98.9852 12.4553 98.9662 12.7814L98.9498 13.0626L101.224 13.0772C103.169 13.0897 103.566 13.0794 103.964 13.0065C104.904 12.8346 106.003 12.994 106.752 13.4107C107.339 13.738 107.849 14.3946 108.051 15.0849C108.096 15.2383 108.148 15.5997 108.167 15.888L108.201 16.4122H105.425C103.707 16.4122 102.649 16.4307 102.649 16.4608C102.649 16.6183 102.791 17.0853 102.9 17.287C103.155 17.7599 103.537 18.058 104.211 18.3095L104.54 18.4322L107.02 18.4352C108.384 18.437 109.5 18.4297 109.5 18.4191C109.5 18.4085 109.441 18.3265 109.369 18.237C108.961 17.7294 108.777 17.0913 108.776 16.1821C108.775 15.1096 109.043 14.3939 109.672 13.7931C110.875 12.6449 113.433 12.655 114.657 13.8128C115.227 14.3518 115.583 15.246 115.583 16.1376V16.4122H112.808H110.032L110.066 16.7135C110.109 17.1004 110.284 17.534 110.507 17.8074C110.721 18.0699 111.171 18.3303 111.536 18.4035C111.707 18.4377 112.844 18.4577 114.619 18.4577H117.431L117.466 18.8029C117.485 18.9928 117.501 19.2128 117.501 19.2919L117.502 19.4357L114.501 19.4154C112.581 19.4024 111.425 19.3752 111.29 19.3398C111.146 19.302 110.814 19.2982 110.248 19.3278C109.792 19.3517 108.481 19.3872 107.335 19.4067C105.545 19.4373 105.164 19.4304 104.623 19.3574C104.052 19.2807 103.175 19.2741 95.4153 19.289C90.4015 19.3681 84.339 19.3 79.9055 19.3924C79.2574 19.4063 78.5792 19.3978 78.3983 19.3736L78.3968 19.3737ZM86.6761 18.3507C87.159 18.2116 87.6076 17.8161 87.7854 17.3727C87.9682 16.9168 88.0396 16.2565 87.9637 15.7242C87.8393 14.8523 87.5373 14.3787 86.9264 14.098C86.5773 13.9376 86.3224 13.8681 85.9157 13.8764C85.4794 13.8854 85.1788 13.9376 84.8293 14.098C84.2159 14.3796 83.8977 14.8831 83.7825 15.7547C83.7127 16.2829 83.7821 16.9015 83.9629 17.3607C84.1361 17.8008 84.5913 18.2096 85.0634 18.3491C85.5418 18.4905 86.189 18.4912 86.6761 18.3507ZM91.5774 16.1822V14.0599H90.1246H88.6718L88.832 14.3284C89.4546 15.3715 89.4029 17.266 88.7278 18.1507L88.6105 18.3044H90.0939H91.5774L91.5774 16.1822ZM97.6608 16.1822V14.0599H95.2767H92.8927V16.1822V18.3044H95.2767H97.6608V16.1822ZM102.015 18.0675C101.58 17.5354 101.439 17.1293 101.402 16.3036C101.368 15.526 101.456 15.0803 101.757 14.515C101.868 14.3069 101.968 14.1194 101.979 14.0983C101.991 14.0772 101.307 14.0599 100.46 14.0599H98.9213V16.1822V18.3044H100.565H102.209L102.015 18.0675ZM106.867 15.479C106.866 15.3433 106.697 14.9024 106.567 14.695C106.169 14.062 105.218 13.7325 104.283 13.9041C103.809 13.9912 103.475 14.1617 103.179 14.4687C102.928 14.7292 102.703 15.1781 102.703 15.417V15.5429H104.785C106.415 15.5429 106.868 15.529 106.867 15.479ZM114.246 15.4535C114.23 15.4043 114.2 15.2949 114.179 15.2105C114.073 14.7786 113.726 14.3404 113.334 14.1408C112.32 13.6263 110.99 13.8376 110.426 14.6026C110.275 14.8071 110.047 15.3457 110.047 15.4964C110.047 15.5236 110.926 15.5429 112.16 15.5429C114.148 15.5429 114.272 15.5375 114.246 15.4535ZM62.2293 13.0177C62.6783 12.9029 63.0732 12.7464 63.2738 12.6037L63.4624 12.4694V11.9671V11.4647L63.2949 11.4334C62.8582 11.3519 61.793 11.288 61.325 11.3153C60.6076 11.357 60.2883 11.4549 60.0432 11.708C59.8586 11.8986 59.8452 11.9349 59.8452 12.2445C59.8452 12.5522 59.8593 12.5912 60.037 12.7747C60.2162 12.9597 60.2974 12.9952 60.8043 13.1097C60.9929 13.1523 61.9423 13.091 62.2293 13.0177ZM83.2273 12.0885C82.1196 11.8831 81.1071 11.1287 80.5435 10.0888C80.1503 9.36347 80.0354 8.25475 80.2777 7.52522C80.6474 6.41235 81.4658 5.58676 83.0411 4.73771C83.3649 4.56318 83.63 4.40195 83.6302 4.37941C83.6304 4.35683 83.5343 4.12677 83.4165 3.86804C82.8462 2.61583 82.9917 1.48196 83.825 0.683354C84.5868 -0.0467218 85.8611 -0.220223 86.6323 0.301102C87.1006 0.617632 87.321 1.26078 87.2033 1.96724C87.0686 2.77548 86.5826 3.33726 85.5207 3.91193C85.4298 3.96111 85.5234 4.14327 86.5627 5.93189C88.1781 8.71295 88.5079 9.27242 88.562 9.32324C88.6196 9.37725 88.9308 8.81281 89.1328 8.28823C89.3714 7.66841 89.4616 7.07484 89.4601 6.13351C89.4574 4.90601 89.3246 4.39617 88.9336 4.12218C88.7431 3.98874 88.3126 3.88344 87.9576 3.88344C87.7632 3.88344 87.7411 3.87044 87.7411 3.75559V3.62775H89.4674H91.1938V3.749C91.1938 3.85859 91.1635 3.87347 90.8786 3.90387C90.4065 3.95428 90.156 4.10695 89.9671 4.45955C89.8136 4.74604 89.8078 4.78573 89.7624 5.85762C89.6923 7.51347 89.5513 8.13306 89.0203 9.11773L88.721 9.67289L89.024 10.1467C89.4509 10.8142 89.7383 11.1371 90.007 11.2509C90.6951 11.5424 91.1598 11.1283 91.2449 10.1479C91.2728 9.82595 91.2883 9.78826 91.3993 9.77356C91.5132 9.75849 91.5226 9.7769 91.5226 10.0139C91.5226 10.7595 91.1043 11.5519 90.5331 11.8883C90.0718 12.16 89.3011 12.2453 88.7322 12.0877C88.3941 11.994 88.0583 11.7265 87.7291 11.2886C87.6063 11.1253 87.491 10.9925 87.4727 10.9935C87.4545 10.9945 87.2792 11.1102 87.0833 11.2505C86.7222 11.5092 86.162 11.7906 85.7132 11.9387C85.0142 12.1694 83.9948 12.2308 83.2273 12.0885ZM85.6859 11.638C85.8366 11.6003 86.0955 11.5061 86.2613 11.4285C86.6099 11.2653 87.3026 10.7912 87.3026 10.7158C87.3026 10.6876 87.0962 10.3067 86.8438 9.86926C85.0048 6.68143 83.8356 4.67043 83.8024 4.63827C83.7325 4.57055 82.9256 5.0549 82.5338 5.39975C81.9025 5.95551 81.6653 6.55457 81.7372 7.41197C81.8839 9.16187 83.1589 11.1409 84.4408 11.6085C84.7506 11.7215 85.2992 11.7345 85.6859 11.638ZM85.7406 3.50165C86.1772 3.24776 86.5786 2.8763 86.7432 2.57389C87.0847 1.94663 87.0052 1.00391 86.5739 0.566121C86.2603 0.247827 85.5535 0.150541 85.1405 0.368818C84.5015 0.706547 84.3074 1.43992 84.6247 2.31859C84.7471 2.65782 85.2749 3.73001 85.3195 3.73001C85.3352 3.73001 85.5246 3.62723 85.7406 3.50165ZM68.4498 5.00848V4.2414H69.2992H70.1487V5.00848V5.77554H69.2992H68.4498V5.00848Z" fill="#0B0B0B"/>
</svg>
